<?xml version="1.0" encoding="utf-8"?>
<!-- Generator: Adobe Illustrator 26.0.0, SVG Export Plug-In . SVG Version: 6.00 Build 0)  -->
<svg version="1.1" id="Layer_1" xmlns="http://www.w3.org/2000/svg" xmlns:xlink="http://www.w3.org/1999/xlink" x="0px" y="0px"
	 viewBox="0 0 445 444" style="enable-background:new 0 0 445 444;" xml:space="preserve">
<style type="text/css">
	.st0{fill:#FFFFFF;}
</style>
<g>
	<path class="st0" d="M17.8,210c1.4-7.8,1.6-15.8,3.1-23.6C33.5,121.7,68.7,73.3,126.3,41.6c32.4-17.8,67.6-26,104.5-23.7
		c76.7,4.7,134.2,41.1,171.8,108.2c18.1,32.3,26,67.6,23.7,104.4c-4.7,76.9-41.3,134.4-108.5,172c-24.9,14-52,21.3-80.6,23.2
		c-1,0.1-2.1,0.4-3.1,0.7c-8,0-16,0-24,0c-1-0.2-2-0.6-3.1-0.7c-25.1-1.6-49.1-7.6-71.6-18.7c-62.7-30.9-101-80.7-114.6-149.4
		c-1.5-7.8-1.8-15.8-3.1-23.6C17.8,226,17.8,218,17.8,210z M222.1,36.1C119.6,36.3,36.2,119.7,36.3,222.1
		c0.1,102.5,83.6,185.9,185.9,185.8c102.5-0.1,185.9-83.6,185.8-185.9C407.9,119.4,324.5,36,222.1,36.1z"/>
	<path class="st0" d="M240.7,263.9c0,12.6-0.1,25.3,0.1,37.9c0,3.2-1,4-4.1,4c-9.7-0.2-19.4-0.2-29.1,0c-3.1,0.1-4-0.8-4-4
		c0.1-25.1,0-50.3,0.1-75.4c0-3.4-0.7-4.8-4.3-4.4c-3.8,0.4-7.7,0-11.6,0.1c-2,0.1-2.9-0.4-2.9-2.6c0.1-7.6,0.1-15.2,0-22.7
		c0-2.2,0.9-2.7,2.9-2.6c4,0.1,8-0.2,12,0.1c3.3,0.3,3.9-1.1,3.9-4.1c0-8.2-0.6-16.5,0.8-24.7c3.3-19.1,15.5-24.7,30.3-26.4
		c10.2-1.2,20.5-0.6,30.7-0.7c2.5,0,3.2,0.8,3.1,3.2c-0.1,7.3-0.1,14.6,0,21.9c0,2.3-0.7,3-3,2.9c-5.4,0-10.9-0.1-16.3,0.3
		c-6.2,0.5-8,2.4-8.3,8.5c-0.3,5.4-0.1,10.9-0.3,16.3c-0.1,2.2,0.9,2.7,2.8,2.6c7.2-0.1,14.4,0.1,21.5-0.1c2.8-0.1,3.7,0.6,3.3,3.5
		c-1,7-1.7,14-2.4,21c-0.2,2.6-1.1,3.6-3.9,3.5c-5.7-0.2-11.5,0.2-17.1-0.2c-3.8-0.2-4.3,1.1-4.3,4.5
		C240.8,238.9,240.7,251.4,240.7,263.9z"/>
</g>
</svg>
