<?xml version="1.0" encoding="utf-8"?>
<!-- Generator: Adobe Illustrator 26.0.0, SVG Export Plug-In . SVG Version: 6.00 Build 0)  -->
<svg version="1.1" id="Layer_1" xmlns="http://www.w3.org/2000/svg" xmlns:xlink="http://www.w3.org/1999/xlink" x="0px" y="0px"
	 viewBox="0 0 409.6 409.6" style="enable-background:new 0 0 409.6 409.6;" xml:space="preserve">
<style type="text/css">
	.st0{fill:#FFFFFF;}
</style>
<g>
	<path class="st0" d="M0.8,194c1.4-7.8,1.6-15.8,3.1-23.6C16.5,105.7,51.7,57.3,109.3,25.6c32.4-17.8,67.6-26,104.5-23.7
		C290.5,6.7,348,43.1,385.5,110.1c18.1,32.3,26,67.6,23.7,104.4c-4.7,76.9-41.3,134.4-108.5,172c-24.9,14-52,21.3-80.6,23.2
		c-1,0.1-2.1,0.4-3.1,0.7c-8,0-16,0-24,0c-1-0.2-2-0.6-3.1-0.7c-25.1-1.6-49.1-7.6-71.6-18.7c-62.7-30.9-101-80.7-114.6-149.4
		c-1.5-7.8-1.8-15.8-3.1-23.6C0.8,210,0.8,202,0.8,194z M391.1,206c0-102.4-83.4-185.8-185.8-185.9C102.8,20.1,19.4,103.5,19.3,206
		c0,102.4,83.4,185.8,185.8,185.9C307.6,391.9,391,308.5,391.1,206z"/>
	<path class="st0" d="M205.2,113.4c19.4,0,38.8-0.5,58.2,0.1c18.7,0.6,33.1,15.6,34.4,34.5c0.1,1.6,0.2,3.2,0.2,4.8
		c0,35.5,0,71,0,106.5c0,16-6.5,28.2-20.9,35.7c-5.5,2.9-11.6,3.8-17.7,3.8c-36.2,0-72.4,0.1-108.5,0c-22.9-0.1-38.5-15.8-38.6-38.7
		c-0.1-36-0.1-72.1,0-108.1c0.1-23.2,15.7-38.6,39-38.8c18-0.1,35.9,0,53.9,0C205.2,113.2,205.2,113.3,205.2,113.4z M205.1,280.3
		c18.5,0,37,0.1,55.5,0c10.6-0.1,18.7-7.6,18.8-17.7c0.2-21,0.1-42,0.2-63c0-2.4-0.9-2.9-3.1-2.9c-4,0.1-8,0.3-12,0
		c-4.1-0.4-4.7,1.4-4.1,4.8c0.8,4.2,0.5,8.4,0,12.7c-4.8,39.2-49.4,61.2-83.2,40.8c-20.3-12.3-29.4-30.7-27.2-54.5
		c0.3-3.1-0.5-4-3.5-3.8c-3.8,0.2-7.7,0.3-11.6,0c-3.5-0.3-4.1,1.1-4.1,4.3c0.1,19.6,0.1,39.1,0.1,58.7c0,13.3,7.4,20.7,20.7,20.8
		C169.5,280.3,187.3,280.3,205.1,280.3z M205.3,168.9c-20.3-0.1-37,16.6-37.1,37c-0.1,20.3,16.6,37,37,37.1
		c20.3,0.1,37-16.6,37.1-37C242.3,185.7,225.7,169,205.3,168.9z M256.3,168.8c3.7,0,7.4-0.1,11.2,0c2.1,0.1,2.8-0.7,2.8-2.8
		c-0.1-7.4-0.1-14.9,0-22.3c0-2.1-0.7-2.8-2.8-2.8c-7.4,0.1-14.9,0.1-22.3,0c-2.1,0-2.8,0.7-2.8,2.8c0.1,7.4,0.1,14.9,0,22.3
		c0,2.1,0.7,2.8,2.8,2.8C248.9,168.7,252.6,168.8,256.3,168.8z"/>
</g>
</svg>
