<?xml version="1.0" encoding="utf-8"?>
<!-- Generator: Adobe Illustrator 26.0.0, SVG Export Plug-In . SVG Version: 6.00 Build 0)  -->
<svg version="1.1" id="Layer_1" xmlns="http://www.w3.org/2000/svg" xmlns:xlink="http://www.w3.org/1999/xlink" x="0px" y="0px"
	 viewBox="0 0 409.6 409.6" style="enable-background:new 0 0 409.6 409.6;" xml:space="preserve">
<style type="text/css">
	.st0{fill:#FF4EC0;}
</style>
<g>
	<path class="st0" d="M0.8,194c1.4-7.8,1.6-15.8,3.1-23.6C16.5,105.7,51.7,57.3,109.3,25.6c32.4-17.8,67.6-26,104.5-23.7
		C290.5,6.7,348,43.1,385.5,110.1c18.1,32.3,26,67.6,23.7,104.4c-4.7,76.9-41.3,134.4-108.5,172c-24.9,14-52,21.3-80.6,23.2
		c-1,0.1-2.1,0.4-3.1,0.7c-8,0-16,0-24,0c-1-0.2-2-0.6-3.1-0.7c-25.1-1.6-49.1-7.6-71.6-18.7c-62.7-30.9-101-80.7-114.6-149.4
		c-1.5-7.8-1.8-15.8-3.1-23.6C0.8,210,0.8,202,0.8,194z M205.2,391.9C307.6,391.9,391,308.5,391.1,206
		c0.1-102.4-83.3-185.8-185.8-185.9C102.8,20.1,19.4,103.5,19.3,206C19.3,308.4,102.7,391.8,205.2,391.9z"/>
	<path class="st0" d="M302,134.7c-2.9,8.9-8.3,14.8-15.7,20.3c7.5-0.6,13.5-2.8,20.6-5.2c-4.2,6.6-8.7,11.6-14.1,15.7
		c-3,2.3-3.9,4.7-3.9,8.3c-0.4,51.3-35.7,94.4-86.6,104.5c-26.8,5.3-52.6,1.2-76.6-12.5c-0.7-0.4-1.4-0.8-2-1.3
		c-0.2-0.1-0.2-0.4-0.6-1c20,1.7,37.9-3.3,54.6-15.6c-17.1-1.8-28.7-9.9-35-25.8c5.5-0.1,10.5,0.9,15.6-1.1
		c-20.2-8.6-29.4-20.4-28.8-37.1c5,1.7,9.7,4.1,15.9,3.7c-5.7-4.6-10-9.3-12.7-15.4c-4.5-10.2-4.4-20.3,0-30.5
		c1.2-2.8,2-3.4,4.4-0.7c14.1,16,31.5,26.7,52,32.5c6.9,2,14,3.2,21.2,3.7c1.9,0.1,2.7,0.1,2.4-2.5c-2.3-20.2,9-36.9,28.7-41.8
		c12.7-3.2,24.2,0.2,34.2,8.5c2,1.7,3.6,2,6,1.4C288.4,141.1,294.9,138.6,302,134.7z"/>
</g>
</svg>
